<svg xmlns="http://www.w3.org/2000/svg" width="920" height="1008" viewBox="0 0 920 1008" font-family="Helvetica,Arial,sans-serif" font-size="12">
<rect width="100%" height="100%" fill="#fff"/>
<text x="16" y="24" font-size="15" font-weight="bold" fill="#111">2026-10-01/runB: ojas-wgpu vs torch-mps</text>
<text x="16" y="44" fill="#555">ojas median / torch median, median of 5 per-round ratios</text>
<text x="16" y="62" fill="#555">Lower is faster. Grey band = within 10%. Hollow bar = run marked noisy. Whisker = per-round min..max.</text>
<rect x="513.3" y="72" width="15.0" height="886" fill="#eee"/>
<line x1="339.6" x2="339.6" y1="72" y2="958" stroke="#ddd" stroke-width="1"/>
<text x="339.6" y="974" text-anchor="middle" fill="#444">0.1x</text>
<line x1="520.8" x2="520.8" y1="72" y2="958" stroke="#222" stroke-width="1.5"/>
<text x="520.8" y="974" text-anchor="middle" fill="#444">1x</text>
<line x1="701.9" x2="701.9" y1="72" y2="958" stroke="#ddd" stroke-width="1"/>
<text x="701.9" y="974" text-anchor="middle" fill="#444">10x</text>
<text x="292" y="92" text-anchor="end" fill="#222">clip_grad_norm_full</text>
<rect x="357.7" y="81" width="163.1" height="13" fill="#fff" stroke="#2a9d8f" stroke-width="1.4"/>
<line x1="347.0" x2="369.3" y1="87.5" y2="87.5" stroke="#222" stroke-width="1"/>
<line x1="347.0" x2="347.0" y1="84.5" y2="90.5" stroke="#222" stroke-width="1"/>
<line x1="369.3" x2="369.3" y1="84.5" y2="90.5" stroke="#222" stroke-width="1"/>
<circle cx="357.7" cy="87.5" r="3.2" fill="#fff" stroke="#222" stroke-width="1.2"/>
<text x="342.0" y="92" text-anchor="end" fill="#333">0.13</text>
<text x="292" y="112" text-anchor="end" fill="#222">rope_bwd</text>
<rect x="390.6" y="101" width="130.2" height="13" fill="#fff" stroke="#2a9d8f" stroke-width="1.4"/>
<line x1="373.6" x2="404.0" y1="107.5" y2="107.5" stroke="#222" stroke-width="1"/>
<line x1="373.6" x2="373.6" y1="104.5" y2="110.5" stroke="#222" stroke-width="1"/>
<line x1="404.0" x2="404.0" y1="104.5" y2="110.5" stroke="#222" stroke-width="1"/>
<circle cx="390.6" cy="107.5" r="3.2" fill="#fff" stroke="#222" stroke-width="1.2"/>
<text x="368.6" y="112" text-anchor="end" fill="#333">0.19</text>
<text x="292" y="132" text-anchor="end" fill="#222">rope_fwd</text>
<rect x="415.7" y="121" width="105.0" height="13" fill="#fff" stroke="#2a9d8f" stroke-width="1.4"/>
<line x1="397.7" x2="422.0" y1="127.5" y2="127.5" stroke="#222" stroke-width="1"/>
<line x1="397.7" x2="397.7" y1="124.5" y2="130.5" stroke="#222" stroke-width="1"/>
<line x1="422.0" x2="422.0" y1="124.5" y2="130.5" stroke="#222" stroke-width="1"/>
<circle cx="415.7" cy="127.5" r="3.2" fill="#fff" stroke="#222" stroke-width="1.2"/>
<text x="392.7" y="132" text-anchor="end" fill="#333">0.26</text>
<text x="292" y="152" text-anchor="end" fill="#222">rms_norm_bwd</text>
<rect x="421.5" y="141" width="99.2" height="13" fill="#fff" stroke="#2a9d8f" stroke-width="1.4"/>
<line x1="383.0" x2="454.6" y1="147.5" y2="147.5" stroke="#222" stroke-width="1"/>
<line x1="383.0" x2="383.0" y1="144.5" y2="150.5" stroke="#222" stroke-width="1"/>
<line x1="454.6" x2="454.6" y1="144.5" y2="150.5" stroke="#222" stroke-width="1"/>
<circle cx="421.5" cy="147.5" r="3.2" fill="#fff" stroke="#222" stroke-width="1.2"/>
<text x="378.0" y="152" text-anchor="end" fill="#333">0.28</text>
<text x="292" y="172" text-anchor="end" fill="#222">cross_entropy_fwd</text>
<rect x="445.3" y="161" width="75.5" height="13" fill="#fff" stroke="#2a9d8f" stroke-width="1.4"/>
<line x1="429.0" x2="469.0" y1="167.5" y2="167.5" stroke="#222" stroke-width="1"/>
<line x1="429.0" x2="429.0" y1="164.5" y2="170.5" stroke="#222" stroke-width="1"/>
<line x1="469.0" x2="469.0" y1="164.5" y2="170.5" stroke="#222" stroke-width="1"/>
<circle cx="445.3" cy="167.5" r="3.2" fill="#fff" stroke="#222" stroke-width="1.2"/>
<text x="424.0" y="172" text-anchor="end" fill="#333">0.38</text>
<text x="292" y="192" text-anchor="end" fill="#222">vres_bwd</text>
<rect x="491.0" y="181" width="29.8" height="13" fill="#fff" stroke="#2a9d8f" stroke-width="1.4"/>
<line x1="462.4" x2="509.1" y1="187.5" y2="187.5" stroke="#222" stroke-width="1"/>
<line x1="462.4" x2="462.4" y1="184.5" y2="190.5" stroke="#222" stroke-width="1"/>
<line x1="509.1" x2="509.1" y1="184.5" y2="190.5" stroke="#222" stroke-width="1"/>
<circle cx="491.0" cy="187.5" r="3.2" fill="#fff" stroke="#222" stroke-width="1.2"/>
<text x="457.4" y="192" text-anchor="end" fill="#333">0.68</text>
<text x="292" y="212" text-anchor="end" fill="#222">vres_fwd</text>
<rect x="506.4" y="201" width="14.3" height="13" fill="#fff" stroke="#2a9d8f" stroke-width="1.4"/>
<line x1="469.9" x2="514.0" y1="207.5" y2="207.5" stroke="#222" stroke-width="1"/>
<line x1="469.9" x2="469.9" y1="204.5" y2="210.5" stroke="#222" stroke-width="1"/>
<line x1="514.0" x2="514.0" y1="204.5" y2="210.5" stroke="#222" stroke-width="1"/>
<circle cx="506.4" cy="207.5" r="3.2" fill="#fff" stroke="#222" stroke-width="1.2"/>
<text x="464.9" y="212" text-anchor="end" fill="#333">0.83</text>
<text x="292" y="232" text-anchor="end" fill="#222">rms_qk_norm_bwd</text>
<rect x="514.7" y="221" width="6.1" height="13" fill="#fff" stroke="#9aa0a6" stroke-width="1.4"/>
<line x1="501.3" x2="552.3" y1="227.5" y2="227.5" stroke="#222" stroke-width="1"/>
<line x1="501.3" x2="501.3" y1="224.5" y2="230.5" stroke="#222" stroke-width="1"/>
<line x1="552.3" x2="552.3" y1="224.5" y2="230.5" stroke="#222" stroke-width="1"/>
<circle cx="514.7" cy="227.5" r="3.2" fill="#fff" stroke="#222" stroke-width="1.2"/>
<text x="496.3" y="232" text-anchor="end" fill="#333">0.93</text>
<text x="292" y="252" text-anchor="end" fill="#222">mul_bwd</text>
<rect x="520.8" y="241" width="4.0" height="13" fill="#fff" stroke="#9aa0a6" stroke-width="1.4"/>
<line x1="404.9" x2="541.3" y1="247.5" y2="247.5" stroke="#222" stroke-width="1"/>
<line x1="404.9" x2="404.9" y1="244.5" y2="250.5" stroke="#222" stroke-width="1"/>
<line x1="541.3" x2="541.3" y1="244.5" y2="250.5" stroke="#222" stroke-width="1"/>
<circle cx="524.8" cy="247.5" r="3.2" fill="#fff" stroke="#222" stroke-width="1.2"/>
<text x="546.3" y="252" text-anchor="start" fill="#333">1.05</text>
<text x="292" y="272" text-anchor="end" fill="#222">permute_bthd_bhtd</text>
<rect x="520.8" y="261" width="6.6" height="13" fill="#fff" stroke="#9aa0a6" stroke-width="1.4"/>
<line x1="507.1" x2="541.3" y1="267.5" y2="267.5" stroke="#222" stroke-width="1"/>
<line x1="507.1" x2="507.1" y1="264.5" y2="270.5" stroke="#222" stroke-width="1"/>
<line x1="541.3" x2="541.3" y1="264.5" y2="270.5" stroke="#222" stroke-width="1"/>
<circle cx="527.3" cy="267.5" r="3.2" fill="#fff" stroke="#222" stroke-width="1.2"/>
<text x="546.3" y="272" text-anchor="start" fill="#333">1.09</text>
<text x="292" y="292" text-anchor="end" fill="#222">silu_bwd</text>
<rect x="520.8" y="281" width="19.5" height="13" fill="#fff" stroke="#d1495b" stroke-width="1.4"/>
<line x1="501.3" x2="554.7" y1="287.5" y2="287.5" stroke="#222" stroke-width="1"/>
<line x1="501.3" x2="501.3" y1="284.5" y2="290.5" stroke="#222" stroke-width="1"/>
<line x1="554.7" x2="554.7" y1="284.5" y2="290.5" stroke="#222" stroke-width="1"/>
<circle cx="540.3" cy="287.5" r="3.2" fill="#fff" stroke="#222" stroke-width="1.2"/>
<text x="559.7" y="292" text-anchor="start" fill="#333">1.28</text>
<text x="292" y="312" text-anchor="end" fill="#222">mul_fwd</text>
<rect x="520.8" y="301" width="20.6" height="13" fill="#fff" stroke="#d1495b" stroke-width="1.4"/>
<line x1="449.6" x2="562.3" y1="307.5" y2="307.5" stroke="#222" stroke-width="1"/>
<line x1="449.6" x2="449.6" y1="304.5" y2="310.5" stroke="#222" stroke-width="1"/>
<line x1="562.3" x2="562.3" y1="304.5" y2="310.5" stroke="#222" stroke-width="1"/>
<circle cx="541.3" cy="307.5" r="3.2" fill="#fff" stroke="#222" stroke-width="1.2"/>
<text x="567.3" y="312" text-anchor="start" fill="#333">1.30</text>
<text x="292" y="332" text-anchor="end" fill="#222">adamw_full</text>
<rect x="520.8" y="321" width="22.6" height="13" fill="#fff" stroke="#d1495b" stroke-width="1.4"/>
<line x1="516.2" x2="566.4" y1="327.5" y2="327.5" stroke="#222" stroke-width="1"/>
<line x1="516.2" x2="516.2" y1="324.5" y2="330.5" stroke="#222" stroke-width="1"/>
<line x1="566.4" x2="566.4" y1="324.5" y2="330.5" stroke="#222" stroke-width="1"/>
<circle cx="543.4" cy="327.5" r="3.2" fill="#fff" stroke="#222" stroke-width="1.2"/>
<text x="571.4" y="332" text-anchor="start" fill="#333">1.33</text>
<text x="292" y="352" text-anchor="end" fill="#222">gate_fwd</text>
<rect x="520.8" y="341" width="25.8" height="13" fill="#fff" stroke="#d1495b" stroke-width="1.4"/>
<line x1="483.3" x2="558.4" y1="347.5" y2="347.5" stroke="#222" stroke-width="1"/>
<line x1="483.3" x2="483.3" y1="344.5" y2="350.5" stroke="#222" stroke-width="1"/>
<line x1="558.4" x2="558.4" y1="344.5" y2="350.5" stroke="#222" stroke-width="1"/>
<circle cx="546.6" cy="347.5" r="3.2" fill="#fff" stroke="#222" stroke-width="1.2"/>
<text x="563.4" y="352" text-anchor="start" fill="#333">1.39</text>
<text x="292" y="372" text-anchor="end" fill="#222">rms_norm_fwd</text>
<rect x="520.8" y="361" width="28.1" height="13" fill="#fff" stroke="#d1495b" stroke-width="1.4"/>
<line x1="514.7" x2="580.2" y1="367.5" y2="367.5" stroke="#222" stroke-width="1"/>
<line x1="514.7" x2="514.7" y1="364.5" y2="370.5" stroke="#222" stroke-width="1"/>
<line x1="580.2" x2="580.2" y1="364.5" y2="370.5" stroke="#222" stroke-width="1"/>
<circle cx="548.8" cy="367.5" r="3.2" fill="#fff" stroke="#222" stroke-width="1.2"/>
<text x="585.2" y="372" text-anchor="start" fill="#333">1.43</text>
<text x="292" y="392" text-anchor="end" fill="#222">silu_fwd</text>
<rect x="520.8" y="381" width="28.1" height="13" fill="#fff" stroke="#d1495b" stroke-width="1.4"/>
<line x1="520.0" x2="552.3" y1="387.5" y2="387.5" stroke="#222" stroke-width="1"/>
<line x1="520.0" x2="520.0" y1="384.5" y2="390.5" stroke="#222" stroke-width="1"/>
<line x1="552.3" x2="552.3" y1="384.5" y2="390.5" stroke="#222" stroke-width="1"/>
<circle cx="548.8" cy="387.5" r="3.2" fill="#fff" stroke="#222" stroke-width="1.2"/>
<text x="557.3" y="392" text-anchor="start" fill="#333">1.43</text>
<text x="292" y="412" text-anchor="end" fill="#222">residual_add_fwd</text>
<rect x="520.8" y="401" width="32.7" height="13" fill="#fff" stroke="#d1495b" stroke-width="1.4"/>
<line x1="365.8" x2="563.6" y1="407.5" y2="407.5" stroke="#222" stroke-width="1"/>
<line x1="365.8" x2="365.8" y1="404.5" y2="410.5" stroke="#222" stroke-width="1"/>
<line x1="563.6" x2="563.6" y1="404.5" y2="410.5" stroke="#222" stroke-width="1"/>
<circle cx="553.5" cy="407.5" r="3.2" fill="#fff" stroke="#222" stroke-width="1.2"/>
<text x="568.6" y="412" text-anchor="start" fill="#333">1.52</text>
<text x="292" y="432" text-anchor="end" fill="#222">gate_bwd</text>
<rect x="520.8" y="421" width="41.5" height="13" fill="#fff" stroke="#d1495b" stroke-width="1.4"/>
<line x1="537.3" x2="592.9" y1="427.5" y2="427.5" stroke="#222" stroke-width="1"/>
<line x1="537.3" x2="537.3" y1="424.5" y2="430.5" stroke="#222" stroke-width="1"/>
<line x1="592.9" x2="592.9" y1="424.5" y2="430.5" stroke="#222" stroke-width="1"/>
<circle cx="562.3" cy="427.5" r="3.2" fill="#fff" stroke="#222" stroke-width="1.2"/>
<text x="597.9" y="432" text-anchor="start" fill="#333">1.69</text>
<text x="292" y="452" text-anchor="end" fill="#222">cross_entropy_bwd</text>
<rect x="520.8" y="441" width="42.9" height="13" fill="#fff" stroke="#d1495b" stroke-width="1.4"/>
<line x1="531.7" x2="569.2" y1="447.5" y2="447.5" stroke="#222" stroke-width="1"/>
<line x1="531.7" x2="531.7" y1="444.5" y2="450.5" stroke="#222" stroke-width="1"/>
<line x1="569.2" x2="569.2" y1="444.5" y2="450.5" stroke="#222" stroke-width="1"/>
<circle cx="563.6" cy="447.5" r="3.2" fill="#fff" stroke="#222" stroke-width="1.2"/>
<text x="574.2" y="452" text-anchor="start" fill="#333">1.72</text>
<text x="292" y="472" text-anchor="end" fill="#222">muon_768x768</text>
<rect x="520.8" y="461" width="62.8" height="13" fill="#fff" stroke="#d1495b" stroke-width="1.4"/>
<line x1="551.1" x2="592.9" y1="467.5" y2="467.5" stroke="#222" stroke-width="1"/>
<line x1="551.1" x2="551.1" y1="464.5" y2="470.5" stroke="#222" stroke-width="1"/>
<line x1="592.9" x2="592.9" y1="464.5" y2="470.5" stroke="#222" stroke-width="1"/>
<circle cx="583.6" cy="467.5" r="3.2" fill="#fff" stroke="#222" stroke-width="1.2"/>
<text x="597.9" y="472" text-anchor="start" fill="#333">2.22</text>
<text x="292" y="492" text-anchor="end" fill="#222">muon_768x2048</text>
<rect x="520.8" y="481" width="64.6" height="13" fill="#fff" stroke="#d1495b" stroke-width="1.4"/>
<line x1="565.0" x2="587.2" y1="487.5" y2="487.5" stroke="#222" stroke-width="1"/>
<line x1="565.0" x2="565.0" y1="484.5" y2="490.5" stroke="#222" stroke-width="1"/>
<line x1="587.2" x2="587.2" y1="484.5" y2="490.5" stroke="#222" stroke-width="1"/>
<circle cx="585.4" cy="487.5" r="3.2" fill="#fff" stroke="#222" stroke-width="1.2"/>
<text x="592.2" y="492" text-anchor="start" fill="#333">2.27</text>
<text x="292" y="512" text-anchor="end" fill="#222">muon_2048x768</text>
<rect x="520.8" y="501" width="66.4" height="13" fill="#fff" stroke="#d1495b" stroke-width="1.4"/>
<line x1="569.2" x2="590.9" y1="507.5" y2="507.5" stroke="#222" stroke-width="1"/>
<line x1="569.2" x2="569.2" y1="504.5" y2="510.5" stroke="#222" stroke-width="1"/>
<line x1="590.9" x2="590.9" y1="504.5" y2="510.5" stroke="#222" stroke-width="1"/>
<circle cx="587.2" cy="507.5" r="3.2" fill="#fff" stroke="#222" stroke-width="1.2"/>
<text x="595.9" y="512" text-anchor="start" fill="#333">2.33</text>
<text x="292" y="532" text-anchor="end" fill="#222">floor_silu_1</text>
<rect x="520.8" y="521" width="68.3" height="13" fill="#fff" stroke="#d1495b" stroke-width="1.4"/>
<line x1="562.3" x2="603.4" y1="527.5" y2="527.5" stroke="#222" stroke-width="1"/>
<line x1="562.3" x2="562.3" y1="524.5" y2="530.5" stroke="#222" stroke-width="1"/>
<line x1="603.4" x2="603.4" y1="524.5" y2="530.5" stroke="#222" stroke-width="1"/>
<circle cx="589.0" cy="527.5" r="3.2" fill="#fff" stroke="#222" stroke-width="1.2"/>
<text x="608.4" y="532" text-anchor="start" fill="#333">2.38</text>
<text x="292" y="552" text-anchor="end" fill="#222">linear_qkv_fwd</text>
<rect x="520.8" y="541" width="80.4" height="13" fill="#fff" stroke="#d1495b" stroke-width="1.4"/>
<line x1="599.0" x2="615.5" y1="547.5" y2="547.5" stroke="#222" stroke-width="1"/>
<line x1="599.0" x2="599.0" y1="544.5" y2="550.5" stroke="#222" stroke-width="1"/>
<line x1="615.5" x2="615.5" y1="544.5" y2="550.5" stroke="#222" stroke-width="1"/>
<circle cx="601.1" cy="547.5" r="3.2" fill="#fff" stroke="#222" stroke-width="1.2"/>
<text x="620.5" y="552" text-anchor="start" fill="#333">2.78</text>
<text x="292" y="572" text-anchor="end" fill="#222">linear_lmhead_bwd</text>
<rect x="520.8" y="561" width="80.4" height="13" fill="#fff" stroke="#d1495b" stroke-width="1.4"/>
<line x1="596.9" x2="610.4" y1="567.5" y2="567.5" stroke="#222" stroke-width="1"/>
<line x1="596.9" x2="596.9" y1="564.5" y2="570.5" stroke="#222" stroke-width="1"/>
<line x1="610.4" x2="610.4" y1="564.5" y2="570.5" stroke="#222" stroke-width="1"/>
<circle cx="601.1" cy="567.5" r="3.2" fill="#fff" stroke="#222" stroke-width="1.2"/>
<text x="615.4" y="572" text-anchor="start" fill="#333">2.78</text>
<text x="292" y="592" text-anchor="end" fill="#222">linear_qkv_bwd</text>
<rect x="520.8" y="581" width="87.2" height="13" fill="#fff" stroke="#d1495b" stroke-width="1.4"/>
<line x1="590.9" x2="618.2" y1="587.5" y2="587.5" stroke="#222" stroke-width="1"/>
<line x1="590.9" x2="590.9" y1="584.5" y2="590.5" stroke="#222" stroke-width="1"/>
<line x1="618.2" x2="618.2" y1="584.5" y2="590.5" stroke="#222" stroke-width="1"/>
<circle cx="608.0" cy="587.5" r="3.2" fill="#fff" stroke="#222" stroke-width="1.2"/>
<text x="623.2" y="592" text-anchor="start" fill="#333">3.03</text>
<text x="292" y="612" text-anchor="end" fill="#222">linear_up_fwd</text>
<rect x="520.8" y="601" width="89.6" height="13" fill="#fff" stroke="#d1495b" stroke-width="1.4"/>
<line x1="603.4" x2="620.9" y1="607.5" y2="607.5" stroke="#222" stroke-width="1"/>
<line x1="603.4" x2="603.4" y1="604.5" y2="610.5" stroke="#222" stroke-width="1"/>
<line x1="620.9" x2="620.9" y1="604.5" y2="610.5" stroke="#222" stroke-width="1"/>
<circle cx="610.4" cy="607.5" r="3.2" fill="#fff" stroke="#222" stroke-width="1.2"/>
<text x="625.9" y="612" text-anchor="start" fill="#333">3.12</text>
<text x="292" y="632" text-anchor="end" fill="#222">linear_up_bwd</text>
<rect x="520.8" y="621" width="89.6" height="13" fill="#fff" stroke="#d1495b" stroke-width="1.4"/>
<line x1="608.0" x2="615.5" y1="627.5" y2="627.5" stroke="#222" stroke-width="1"/>
<line x1="608.0" x2="608.0" y1="624.5" y2="630.5" stroke="#222" stroke-width="1"/>
<line x1="615.5" x2="615.5" y1="624.5" y2="630.5" stroke="#222" stroke-width="1"/>
<circle cx="610.4" cy="627.5" r="3.2" fill="#fff" stroke="#222" stroke-width="1.2"/>
<text x="620.5" y="632" text-anchor="start" fill="#333">3.12</text>
<text x="292" y="652" text-anchor="end" fill="#222">linear_down_bwd</text>
<rect x="520.8" y="641" width="89.6" height="13" fill="#fff" stroke="#d1495b" stroke-width="1.4"/>
<line x1="605.6" x2="620.9" y1="647.5" y2="647.5" stroke="#222" stroke-width="1"/>
<line x1="605.6" x2="605.6" y1="644.5" y2="650.5" stroke="#222" stroke-width="1"/>
<line x1="620.9" x2="620.9" y1="644.5" y2="650.5" stroke="#222" stroke-width="1"/>
<circle cx="610.4" cy="647.5" r="3.2" fill="#fff" stroke="#222" stroke-width="1.2"/>
<text x="625.9" y="652" text-anchor="start" fill="#333">3.12</text>
<text x="292" y="672" text-anchor="end" fill="#222">linear_lmhead_fwd</text>
<rect x="520.8" y="661" width="89.6" height="13" fill="#fff" stroke="#d1495b" stroke-width="1.4"/>
<line x1="610.4" x2="623.8" y1="667.5" y2="667.5" stroke="#222" stroke-width="1"/>
<line x1="610.4" x2="610.4" y1="664.5" y2="670.5" stroke="#222" stroke-width="1"/>
<line x1="623.8" x2="623.8" y1="664.5" y2="670.5" stroke="#222" stroke-width="1"/>
<circle cx="610.4" cy="667.5" r="3.2" fill="#fff" stroke="#222" stroke-width="1.2"/>
<text x="628.8" y="672" text-anchor="start" fill="#333">3.12</text>
<text x="292" y="692" text-anchor="end" fill="#222">linear_down_fwd</text>
<rect x="520.8" y="681" width="94.7" height="13" fill="#fff" stroke="#d1495b" stroke-width="1.4"/>
<line x1="608.0" x2="620.9" y1="687.5" y2="687.5" stroke="#222" stroke-width="1"/>
<line x1="608.0" x2="608.0" y1="684.5" y2="690.5" stroke="#222" stroke-width="1"/>
<line x1="620.9" x2="620.9" y1="684.5" y2="690.5" stroke="#222" stroke-width="1"/>
<circle cx="615.5" cy="687.5" r="3.2" fill="#fff" stroke="#222" stroke-width="1.2"/>
<text x="625.9" y="692" text-anchor="start" fill="#333">3.33</text>
<text x="292" y="712" text-anchor="end" fill="#222">muon_768x768 vs muon_768x768_bf16</text>
<rect x="520.8" y="701" width="103.0" height="13" fill="#fff" stroke="#d1495b" stroke-width="1.4"/>
<line x1="610.4" x2="639.9" y1="707.5" y2="707.5" stroke="#222" stroke-width="1"/>
<line x1="610.4" x2="610.4" y1="704.5" y2="710.5" stroke="#222" stroke-width="1"/>
<line x1="639.9" x2="639.9" y1="704.5" y2="710.5" stroke="#222" stroke-width="1"/>
<circle cx="623.8" cy="707.5" r="3.2" fill="#fff" stroke="#222" stroke-width="1.2"/>
<text x="644.9" y="712" text-anchor="start" fill="#333">3.70</text>
<text x="292" y="732" text-anchor="end" fill="#222">muon_2048x768 vs muon_2048x768_bf16</text>
<rect x="520.8" y="721" width="106.0" height="13" fill="#fff" stroke="#d1495b" stroke-width="1.4"/>
<line x1="601.1" x2="629.8" y1="727.5" y2="727.5" stroke="#222" stroke-width="1"/>
<line x1="601.1" x2="601.1" y1="724.5" y2="730.5" stroke="#222" stroke-width="1"/>
<line x1="629.8" x2="629.8" y1="724.5" y2="730.5" stroke="#222" stroke-width="1"/>
<circle cx="626.7" cy="727.5" r="3.2" fill="#fff" stroke="#222" stroke-width="1.2"/>
<text x="634.8" y="732" text-anchor="start" fill="#333">3.85</text>
<text x="292" y="752" text-anchor="end" fill="#222">muon_768x2048 vs muon_768x2048_bf16</text>
<rect x="520.8" y="741" width="109.1" height="13" fill="#fff" stroke="#d1495b" stroke-width="1.4"/>
<line x1="612.9" x2="639.9" y1="747.5" y2="747.5" stroke="#222" stroke-width="1"/>
<line x1="612.9" x2="612.9" y1="744.5" y2="750.5" stroke="#222" stroke-width="1"/>
<line x1="639.9" x2="639.9" y1="744.5" y2="750.5" stroke="#222" stroke-width="1"/>
<circle cx="629.8" cy="747.5" r="3.2" fill="#fff" stroke="#222" stroke-width="1.2"/>
<text x="644.9" y="752" text-anchor="start" fill="#333">4.00</text>
<text x="292" y="772" text-anchor="end" fill="#222">rms_qk_norm_fwd</text>
<rect x="520.8" y="761" width="130.7" height="13" fill="#fff" stroke="#d1495b" stroke-width="1.4"/>
<line x1="563.6" x2="701.9" y1="767.5" y2="767.5" stroke="#222" stroke-width="1"/>
<line x1="563.6" x2="563.6" y1="764.5" y2="770.5" stroke="#222" stroke-width="1"/>
<line x1="701.9" x2="701.9" y1="764.5" y2="770.5" stroke="#222" stroke-width="1"/>
<circle cx="651.4" cy="767.5" r="3.2" fill="#fff" stroke="#222" stroke-width="1.2"/>
<text x="706.9" y="772" text-anchor="start" fill="#333">5.26</text>
<text x="292" y="792" text-anchor="end" fill="#222">block_fwd_bwd</text>
<rect x="520.8" y="781" width="139.4" height="13" fill="#fff" stroke="#d1495b" stroke-width="1.4"/>
<line x1="643.6" x2="670.0" y1="787.5" y2="787.5" stroke="#222" stroke-width="1"/>
<line x1="643.6" x2="643.6" y1="784.5" y2="790.5" stroke="#222" stroke-width="1"/>
<line x1="670.0" x2="670.0" y1="784.5" y2="790.5" stroke="#222" stroke-width="1"/>
<circle cx="660.2" cy="787.5" r="3.2" fill="#fff" stroke="#222" stroke-width="1.2"/>
<text x="675.0" y="792" text-anchor="start" fill="#333">5.88</text>
<text x="292" y="812" text-anchor="end" fill="#222">block_fwd</text>
<rect x="520.8" y="801" width="154.7" height="13" fill="#fff" stroke="#d1495b" stroke-width="1.4"/>
<line x1="655.7" x2="681.3" y1="807.5" y2="807.5" stroke="#222" stroke-width="1"/>
<line x1="655.7" x2="655.7" y1="804.5" y2="810.5" stroke="#222" stroke-width="1"/>
<line x1="681.3" x2="681.3" y1="804.5" y2="810.5" stroke="#222" stroke-width="1"/>
<circle cx="675.5" cy="807.5" r="3.2" fill="#fff" stroke="#222" stroke-width="1.2"/>
<text x="686.3" y="812" text-anchor="start" fill="#333">7.14</text>
<text x="292" y="832" text-anchor="end" fill="#222">sdpa_b4h12t1024d64_bwd</text>
<rect x="520.8" y="821" width="258.3" height="13" fill="#fff" stroke="#d1495b" stroke-width="1.4"/>
<circle cx="779.1" cy="827.5" r="3.2" fill="#fff" stroke="#222" stroke-width="1.2"/>
<text x="784.1" y="832" text-anchor="start" fill="#333">26.66</text>
<text x="292" y="852" text-anchor="end" fill="#222">sdpa_b4h8t2048d64_bwd</text>
<rect x="520.8" y="841" width="259.9" height="13" fill="#fff" stroke="#d1495b" stroke-width="1.4"/>
<circle cx="780.7" cy="847.5" r="3.2" fill="#fff" stroke="#222" stroke-width="1.2"/>
<text x="785.7" y="852" text-anchor="start" fill="#333">27.21</text>
<text x="292" y="872" text-anchor="end" fill="#222">sdpa_b2h8t1024d128_bwd</text>
<rect x="520.8" y="861" width="299.5" height="13" fill="#fff" stroke="#d1495b" stroke-width="1.4"/>
<circle cx="820.3" cy="867.5" r="3.2" fill="#fff" stroke="#222" stroke-width="1.2"/>
<text x="825.3" y="872" text-anchor="start" fill="#333">45.00</text>
<text x="292" y="892" text-anchor="end" fill="#222">sdpa_b4h12t1024d64_fwd</text>
<rect x="520.8" y="881" width="307.7" height="13" fill="#fff" stroke="#d1495b" stroke-width="1.4"/>
<circle cx="828.5" cy="887.5" r="3.2" fill="#fff" stroke="#222" stroke-width="1.2"/>
<text x="833.5" y="892" text-anchor="start" fill="#333">49.95</text>
<text x="292" y="912" text-anchor="end" fill="#222">residual_add_bwd</text>
<rect x="520.8" y="901" width="311.3" height="13" fill="#fff" stroke="#d1495b" stroke-width="1.4"/>
<circle cx="832.0" cy="907.5" r="3.2" fill="#fff" stroke="#222" stroke-width="1.2"/>
<text x="837.0" y="912" text-anchor="start" fill="#333">52.27</text>
<text x="292" y="932" text-anchor="end" fill="#222">sdpa_b2h8t1024d128_fwd</text>
<rect x="520.8" y="921" width="317.7" height="13" fill="#fff" stroke="#d1495b" stroke-width="1.4"/>
<circle cx="838.5" cy="927.5" r="3.2" fill="#fff" stroke="#222" stroke-width="1.2"/>
<text x="843.5" y="932" text-anchor="start" fill="#333">56.75</text>
<text x="292" y="952" text-anchor="end" fill="#222">sdpa_b4h8t2048d64_fwd</text>
<rect x="520.8" y="941" width="321.7" height="13" fill="#fff" stroke="#d1495b" stroke-width="1.4"/>
<circle cx="842.4" cy="947.5" r="3.2" fill="#fff" stroke="#222" stroke-width="1.2"/>
<text x="847.4" y="952" text-anchor="start" fill="#333">59.66</text>
</svg>