<svg xmlns="http://www.w3.org/2000/svg" width="920" height="648" viewBox="0 0 920 648" font-family="Helvetica,Arial,sans-serif" font-size="12">
<rect width="100%" height="100%" fill="#fff"/>
<text x="16" y="24" font-size="15" font-weight="bold" fill="#111">2026-10-02-gemm/ab-grid-gate: new / old</text>
<text x="16" y="44" fill="#555">min over 4 interleaved rounds per side; whisker = per-round new/old range, circle = median</text>
<text x="16" y="62" fill="#555">Lower is faster. Grey band = within 10%. Hollow bar = run marked noisy. Whisker = per-round min..max.</text>
<rect x="721.0" y="72" width="50.1" height="526" fill="#eee"/>
<line x1="322.9" x2="322.9" y1="72" y2="598" stroke="#ddd" stroke-width="1"/>
<text x="322.9" y="614" text-anchor="middle" fill="#444">0.2x</text>
<line x1="563.8" x2="563.8" y1="72" y2="598" stroke="#ddd" stroke-width="1"/>
<text x="563.8" y="614" text-anchor="middle" fill="#444">0.5x</text>
<line x1="746.0" x2="746.0" y1="72" y2="598" stroke="#222" stroke-width="1.5"/>
<text x="746.0" y="614" text-anchor="middle" fill="#444">1x</text>
<text x="292" y="92" text-anchor="end" fill="#222">nt lm head, 128 rows</text>
<rect x="497.2" y="81" width="248.8" height="13" fill="#2a9d8f"/>
<line x1="457.2" x2="500.1" y1="87.5" y2="87.5" stroke="#222" stroke-width="1"/>
<line x1="457.2" x2="457.2" y1="84.5" y2="90.5" stroke="#222" stroke-width="1"/>
<line x1="500.1" x2="500.1" y1="84.5" y2="90.5" stroke="#222" stroke-width="1"/>
<circle cx="476.6" cy="87.5" r="3.2" fill="#fff" stroke="#222" stroke-width="1.2"/>
<text x="452.2" y="92" text-anchor="end" fill="#333">0.39</text>
<text x="292" y="112" text-anchor="end" fill="#222">nt lm head, 512 rows</text>
<rect x="526.4" y="101" width="219.6" height="13" fill="#2a9d8f"/>
<line x1="523.7" x2="554.2" y1="107.5" y2="107.5" stroke="#222" stroke-width="1"/>
<line x1="523.7" x2="523.7" y1="104.5" y2="110.5" stroke="#222" stroke-width="1"/>
<line x1="554.2" x2="554.2" y1="104.5" y2="110.5" stroke="#222" stroke-width="1"/>
<circle cx="546.7" cy="107.5" r="3.2" fill="#fff" stroke="#222" stroke-width="1.2"/>
<text x="518.7" y="112" text-anchor="end" fill="#333">0.43</text>
<text x="292" y="132" text-anchor="end" fill="#222">nt lm head, 1024 rows</text>
<rect x="539.3" y="121" width="206.7" height="13" fill="#2a9d8f"/>
<line x1="529.1" x2="555.5" y1="127.5" y2="127.5" stroke="#222" stroke-width="1"/>
<line x1="529.1" x2="529.1" y1="124.5" y2="130.5" stroke="#222" stroke-width="1"/>
<line x1="555.5" x2="555.5" y1="124.5" y2="130.5" stroke="#222" stroke-width="1"/>
<circle cx="544.5" cy="127.5" r="3.2" fill="#fff" stroke="#222" stroke-width="1.2"/>
<text x="524.1" y="132" text-anchor="end" fill="#333">0.46</text>
<text x="292" y="152" text-anchor="end" fill="#222">nt lm head, 2048 rows</text>
<rect x="544.6" y="141" width="201.4" height="13" fill="#2a9d8f"/>
<line x1="544.1" x2="554.6" y1="147.5" y2="147.5" stroke="#222" stroke-width="1"/>
<line x1="544.1" x2="544.1" y1="144.5" y2="150.5" stroke="#222" stroke-width="1"/>
<line x1="554.6" x2="554.6" y1="144.5" y2="150.5" stroke="#222" stroke-width="1"/>
<circle cx="549.0" cy="147.5" r="3.2" fill="#fff" stroke="#222" stroke-width="1.2"/>
<text x="539.1" y="152" text-anchor="end" fill="#333">0.46</text>
<text x="292" y="172" text-anchor="end" fill="#222">nt lm head</text>
<rect x="549.3" y="161" width="196.7" height="13" fill="#2a9d8f"/>
<line x1="540.9" x2="551.0" y1="167.5" y2="167.5" stroke="#222" stroke-width="1"/>
<line x1="540.9" x2="540.9" y1="164.5" y2="170.5" stroke="#222" stroke-width="1"/>
<line x1="551.0" x2="551.0" y1="164.5" y2="170.5" stroke="#222" stroke-width="1"/>
<circle cx="543.7" cy="167.5" r="3.2" fill="#fff" stroke="#222" stroke-width="1.2"/>
<text x="535.9" y="172" text-anchor="end" fill="#333">0.47</text>
<text x="292" y="192" text-anchor="end" fill="#222">nt vocab chunk 16384</text>
<rect x="553.9" y="181" width="192.1" height="13" fill="#2a9d8f"/>
<line x1="541.4" x2="558.8" y1="187.5" y2="187.5" stroke="#222" stroke-width="1"/>
<line x1="541.4" x2="541.4" y1="184.5" y2="190.5" stroke="#222" stroke-width="1"/>
<line x1="558.8" x2="558.8" y1="184.5" y2="190.5" stroke="#222" stroke-width="1"/>
<circle cx="548.8" cy="187.5" r="3.2" fill="#fff" stroke="#222" stroke-width="1.2"/>
<text x="536.4" y="192" text-anchor="end" fill="#333">0.48</text>
<text x="292" y="212" text-anchor="end" fill="#222">nn lm head</text>
<rect x="708.6" y="201" width="37.5" height="13" fill="#2a9d8f"/>
<line x1="689.1" x2="739.0" y1="207.5" y2="207.5" stroke="#222" stroke-width="1"/>
<line x1="689.1" x2="689.1" y1="204.5" y2="210.5" stroke="#222" stroke-width="1"/>
<line x1="739.0" x2="739.0" y1="204.5" y2="210.5" stroke="#222" stroke-width="1"/>
<circle cx="714.1" cy="207.5" r="3.2" fill="#fff" stroke="#222" stroke-width="1.2"/>
<text x="684.1" y="212" text-anchor="end" fill="#333">0.87</text>
<text x="292" y="232" text-anchor="end" fill="#222">nn vocab chunk 16384</text>
<rect x="732.6" y="221" width="13.4" height="13" fill="#9aa0a6"/>
<line x1="732.6" x2="767.0" y1="227.5" y2="227.5" stroke="#222" stroke-width="1"/>
<line x1="732.6" x2="732.6" y1="224.5" y2="230.5" stroke="#222" stroke-width="1"/>
<line x1="767.0" x2="767.0" y1="224.5" y2="230.5" stroke="#222" stroke-width="1"/>
<circle cx="747.2" cy="227.5" r="3.2" fill="#fff" stroke="#222" stroke-width="1.2"/>
<text x="727.6" y="232" text-anchor="end" fill="#333">0.95</text>
<text x="292" y="252" text-anchor="end" fill="#222">nt lm head, 32 rows</text>
<rect x="739.2" y="241" width="6.9" height="13" fill="#9aa0a6"/>
<line x1="728.8" x2="761.5" y1="247.5" y2="247.5" stroke="#222" stroke-width="1"/>
<line x1="728.8" x2="728.8" y1="244.5" y2="250.5" stroke="#222" stroke-width="1"/>
<line x1="761.5" x2="761.5" y1="244.5" y2="250.5" stroke="#222" stroke-width="1"/>
<circle cx="738.0" cy="247.5" r="3.2" fill="#fff" stroke="#222" stroke-width="1.2"/>
<text x="723.8" y="252" text-anchor="end" fill="#333">0.97</text>
<text x="292" y="272" text-anchor="end" fill="#222">nt lm head in 4096-column chunks (13 GEMMs)</text>
<rect x="739.2" y="261" width="6.8" height="13" fill="#9aa0a6"/>
<line x1="734.4" x2="749.2" y1="267.5" y2="267.5" stroke="#222" stroke-width="1"/>
<line x1="734.4" x2="734.4" y1="264.5" y2="270.5" stroke="#222" stroke-width="1"/>
<line x1="749.2" x2="749.2" y1="264.5" y2="270.5" stroke="#222" stroke-width="1"/>
<circle cx="743.3" cy="267.5" r="3.2" fill="#fff" stroke="#222" stroke-width="1.2"/>
<text x="729.4" y="272" text-anchor="end" fill="#333">0.97</text>
<text x="292" y="292" text-anchor="end" fill="#222">tn mlp down</text>
<rect x="743.9" y="281" width="2.1" height="13" fill="#9aa0a6"/>
<line x1="738.2" x2="800.4" y1="287.5" y2="287.5" stroke="#222" stroke-width="1"/>
<line x1="738.2" x2="738.2" y1="284.5" y2="290.5" stroke="#222" stroke-width="1"/>
<line x1="800.4" x2="800.4" y1="284.5" y2="290.5" stroke="#222" stroke-width="1"/>
<circle cx="747.5" cy="287.5" r="3.2" fill="#fff" stroke="#222" stroke-width="1.2"/>
<text x="733.2" y="292" text-anchor="end" fill="#333">0.99</text>
<text x="292" y="312" text-anchor="end" fill="#222">nn qkv / up width</text>
<rect x="744.2" y="301" width="1.9" height="13" fill="#9aa0a6"/>
<line x1="738.5" x2="764.6" y1="307.5" y2="307.5" stroke="#222" stroke-width="1"/>
<line x1="738.5" x2="738.5" y1="304.5" y2="310.5" stroke="#222" stroke-width="1"/>
<line x1="764.6" x2="764.6" y1="304.5" y2="310.5" stroke="#222" stroke-width="1"/>
<circle cx="743.8" cy="307.5" r="3.2" fill="#fff" stroke="#222" stroke-width="1.2"/>
<text x="733.5" y="312" text-anchor="end" fill="#333">0.99</text>
<text x="292" y="332" text-anchor="end" fill="#222">nt mlp up</text>
<rect x="744.4" y="321" width="1.7" height="13" fill="#9aa0a6"/>
<line x1="735.4" x2="753.6" y1="327.5" y2="327.5" stroke="#222" stroke-width="1"/>
<line x1="735.4" x2="735.4" y1="324.5" y2="330.5" stroke="#222" stroke-width="1"/>
<line x1="753.6" x2="753.6" y1="324.5" y2="330.5" stroke="#222" stroke-width="1"/>
<circle cx="739.6" cy="327.5" r="3.2" fill="#fff" stroke="#222" stroke-width="1.2"/>
<text x="730.4" y="332" text-anchor="end" fill="#333">0.99</text>
<text x="292" y="352" text-anchor="end" fill="#222">nn mlp down</text>
<rect x="744.8" y="341" width="1.2" height="13" fill="#9aa0a6"/>
<line x1="744.1" x2="744.9" y1="347.5" y2="347.5" stroke="#222" stroke-width="1"/>
<line x1="744.1" x2="744.1" y1="344.5" y2="350.5" stroke="#222" stroke-width="1"/>
<line x1="744.9" x2="744.9" y1="344.5" y2="350.5" stroke="#222" stroke-width="1"/>
<circle cx="744.5" cy="347.5" r="3.2" fill="#fff" stroke="#222" stroke-width="1.2"/>
<text x="739.1" y="352" text-anchor="end" fill="#333">1.00</text>
<text x="292" y="372" text-anchor="end" fill="#222">nn mlp up</text>
<rect x="745.0" y="361" width="1.0" height="13" fill="#9aa0a6"/>
<line x1="736.2" x2="745.9" y1="367.5" y2="367.5" stroke="#222" stroke-width="1"/>
<line x1="736.2" x2="736.2" y1="364.5" y2="370.5" stroke="#222" stroke-width="1"/>
<line x1="745.9" x2="745.9" y1="364.5" y2="370.5" stroke="#222" stroke-width="1"/>
<circle cx="742.6" cy="367.5" r="3.2" fill="#fff" stroke="#222" stroke-width="1.2"/>
<text x="731.2" y="372" text-anchor="end" fill="#333">1.00</text>
<text x="292" y="392" text-anchor="end" fill="#222">tn mlp up</text>
<rect x="746.0" y="381" width="1.0" height="13" fill="#9aa0a6"/>
<line x1="740.9" x2="750.6" y1="387.5" y2="387.5" stroke="#222" stroke-width="1"/>
<line x1="740.9" x2="740.9" y1="384.5" y2="390.5" stroke="#222" stroke-width="1"/>
<line x1="750.6" x2="750.6" y1="384.5" y2="390.5" stroke="#222" stroke-width="1"/>
<circle cx="748.9" cy="387.5" r="3.2" fill="#fff" stroke="#222" stroke-width="1.2"/>
<text x="755.6" y="392" text-anchor="start" fill="#333">1.00</text>
<text x="292" y="412" text-anchor="end" fill="#222">nt qkv / up width</text>
<rect x="746.0" y="401" width="1.0" height="13" fill="#9aa0a6"/>
<line x1="737.8" x2="753.3" y1="407.5" y2="407.5" stroke="#222" stroke-width="1"/>
<line x1="737.8" x2="737.8" y1="404.5" y2="410.5" stroke="#222" stroke-width="1"/>
<line x1="753.3" x2="753.3" y1="404.5" y2="410.5" stroke="#222" stroke-width="1"/>
<circle cx="747.2" cy="407.5" r="3.2" fill="#fff" stroke="#222" stroke-width="1.2"/>
<text x="758.3" y="412" text-anchor="start" fill="#333">1.00</text>
<text x="292" y="432" text-anchor="end" fill="#222">tn vocab chunk 16384</text>
<rect x="746.0" y="421" width="1.0" height="13" fill="#9aa0a6"/>
<line x1="742.8" x2="754.4" y1="427.5" y2="427.5" stroke="#222" stroke-width="1"/>
<line x1="742.8" x2="742.8" y1="424.5" y2="430.5" stroke="#222" stroke-width="1"/>
<line x1="754.4" x2="754.4" y1="424.5" y2="430.5" stroke="#222" stroke-width="1"/>
<circle cx="747.0" cy="427.5" r="3.2" fill="#fff" stroke="#222" stroke-width="1.2"/>
<text x="759.4" y="432" text-anchor="start" fill="#333">1.00</text>
<text x="292" y="452" text-anchor="end" fill="#222">nt mlp down</text>
<rect x="746.0" y="441" width="1.6" height="13" fill="#9aa0a6"/>
<line x1="740.7" x2="758.4" y1="447.5" y2="447.5" stroke="#222" stroke-width="1"/>
<line x1="740.7" x2="740.7" y1="444.5" y2="450.5" stroke="#222" stroke-width="1"/>
<line x1="758.4" x2="758.4" y1="444.5" y2="450.5" stroke="#222" stroke-width="1"/>
<circle cx="751.6" cy="447.5" r="3.2" fill="#fff" stroke="#222" stroke-width="1.2"/>
<text x="763.4" y="452" text-anchor="start" fill="#333">1.01</text>
<text x="292" y="472" text-anchor="end" fill="#222">nt lm head in 1024-column chunks (50 GEMMs)</text>
<rect x="746.0" y="461" width="1.8" height="13" fill="#9aa0a6"/>
<line x1="743.0" x2="753.9" y1="467.5" y2="467.5" stroke="#222" stroke-width="1"/>
<line x1="743.0" x2="743.0" y1="464.5" y2="470.5" stroke="#222" stroke-width="1"/>
<line x1="753.9" x2="753.9" y1="464.5" y2="470.5" stroke="#222" stroke-width="1"/>
<circle cx="744.0" cy="467.5" r="3.2" fill="#fff" stroke="#222" stroke-width="1.2"/>
<text x="758.9" y="472" text-anchor="start" fill="#333">1.01</text>
<text x="292" y="492" text-anchor="end" fill="#222">nt lm head in 2048-column chunks (25 GEMMs)</text>
<rect x="746.0" y="481" width="3.8" height="13" fill="#9aa0a6"/>
<line x1="743.7" x2="756.9" y1="487.5" y2="487.5" stroke="#222" stroke-width="1"/>
<line x1="743.7" x2="743.7" y1="484.5" y2="490.5" stroke="#222" stroke-width="1"/>
<line x1="756.9" x2="756.9" y1="484.5" y2="490.5" stroke="#222" stroke-width="1"/>
<circle cx="747.3" cy="487.5" r="3.2" fill="#fff" stroke="#222" stroke-width="1.2"/>
<text x="761.9" y="492" text-anchor="start" fill="#333">1.01</text>
<text x="292" y="512" text-anchor="end" fill="#222">tn qkv / up width</text>
<rect x="746.0" y="501" width="9.2" height="13" fill="#9aa0a6"/>
<line x1="742.7" x2="761.1" y1="507.5" y2="507.5" stroke="#222" stroke-width="1"/>
<line x1="742.7" x2="742.7" y1="504.5" y2="510.5" stroke="#222" stroke-width="1"/>
<line x1="761.1" x2="761.1" y1="504.5" y2="510.5" stroke="#222" stroke-width="1"/>
<circle cx="747.4" cy="507.5" r="3.2" fill="#fff" stroke="#222" stroke-width="1.2"/>
<text x="766.1" y="512" text-anchor="start" fill="#333">1.04</text>
<text x="292" y="532" text-anchor="end" fill="#222">nt vocab chunk 8192</text>
<rect x="746.0" y="521" width="11.7" height="13" fill="#9aa0a6"/>
<line x1="657.5" x2="758.9" y1="527.5" y2="527.5" stroke="#222" stroke-width="1"/>
<line x1="657.5" x2="657.5" y1="524.5" y2="530.5" stroke="#222" stroke-width="1"/>
<line x1="758.9" x2="758.9" y1="524.5" y2="530.5" stroke="#222" stroke-width="1"/>
<circle cx="699.8" cy="527.5" r="3.2" fill="#fff" stroke="#222" stroke-width="1.2"/>
<text x="763.9" y="532" text-anchor="start" fill="#333">1.05</text>
<text x="292" y="552" text-anchor="end" fill="#222">tn lm head</text>
<rect x="746.0" y="541" width="19.8" height="13" fill="#9aa0a6"/>
<line x1="761.8" x2="772.9" y1="547.5" y2="547.5" stroke="#222" stroke-width="1"/>
<line x1="761.8" x2="761.8" y1="544.5" y2="550.5" stroke="#222" stroke-width="1"/>
<line x1="772.9" x2="772.9" y1="544.5" y2="550.5" stroke="#222" stroke-width="1"/>
<circle cx="769.3" cy="547.5" r="3.2" fill="#fff" stroke="#222" stroke-width="1.2"/>
<text x="777.9" y="552" text-anchor="start" fill="#333">1.08</text>
<text x="292" y="572" text-anchor="end" fill="#222">tn vocab chunk 8192</text>
<rect x="746.0" y="561" width="21.1" height="13" fill="#9aa0a6"/>
<line x1="735.6" x2="773.0" y1="567.5" y2="567.5" stroke="#222" stroke-width="1"/>
<line x1="735.6" x2="735.6" y1="564.5" y2="570.5" stroke="#222" stroke-width="1"/>
<line x1="773.0" x2="773.0" y1="564.5" y2="570.5" stroke="#222" stroke-width="1"/>
<circle cx="749.2" cy="567.5" r="3.2" fill="#fff" stroke="#222" stroke-width="1.2"/>
<text x="778.0" y="572" text-anchor="start" fill="#333">1.08</text>
<text x="292" y="592" text-anchor="end" fill="#222">nn vocab chunk 8192</text>
<rect x="746.0" y="581" width="30.0" height="13" fill="#d1495b"/>
<line x1="706.1" x2="801.3" y1="587.5" y2="587.5" stroke="#222" stroke-width="1"/>
<line x1="706.1" x2="706.1" y1="584.5" y2="590.5" stroke="#222" stroke-width="1"/>
<line x1="801.3" x2="801.3" y1="584.5" y2="590.5" stroke="#222" stroke-width="1"/>
<circle cx="762.1" cy="587.5" r="3.2" fill="#fff" stroke="#222" stroke-width="1.2"/>
<text x="806.3" y="592" text-anchor="start" fill="#333">1.12</text>
</svg>