<svg xmlns="http://www.w3.org/2000/svg" width="920" height="168" viewBox="0 0 920 168" font-family="Helvetica,Arial,sans-serif" font-size="12">
<rect width="100%" height="100%" fill="#fff"/>
<text x="16" y="24" font-size="15" font-weight="bold" fill="#111">2026-10-08-decode-before: ojas-cpu vs torch-mps</text>
<text x="16" y="44" fill="#555">ojas median / torch median, median of 3 per-round ratios</text>
<text x="16" y="62" fill="#555">Lower is faster. Grey band = within 10%. Hollow bar = run marked noisy. Whisker = per-round min..max.</text>
<rect x="556.6" y="72" width="77.2" height="46" fill="#eee"/>
<line x1="314.5" x2="314.5" y1="72" y2="118" stroke="#ddd" stroke-width="1"/>
<text x="314.5" y="134" text-anchor="middle" fill="#444">0.5x</text>
<line x1="595.2" x2="595.2" y1="72" y2="118" stroke="#222" stroke-width="1.5"/>
<text x="595.2" y="134" text-anchor="middle" fill="#444">1x</text>
<text x="292" y="92" text-anchor="end" fill="#222">gen_greedy_p32_n32</text>
<rect x="552.9" y="81" width="42.3" height="13" fill="#2a9d8f"/>
<line x1="542.1" x2="552.9" y1="87.5" y2="87.5" stroke="#222" stroke-width="1"/>
<line x1="542.1" x2="542.1" y1="84.5" y2="90.5" stroke="#222" stroke-width="1"/>
<line x1="552.9" x2="552.9" y1="84.5" y2="90.5" stroke="#222" stroke-width="1"/>
<circle cx="552.9" cy="87.5" r="3.2" fill="#fff" stroke="#222" stroke-width="1.2"/>
<text x="537.1" y="92" text-anchor="end" fill="#333">0.90</text>
<text x="292" y="112" text-anchor="end" fill="#222">gen_prefill_p32</text>
<rect x="595.2" y="101" width="174.5" height="13" fill="#d1495b"/>
<line x1="763.4" x2="769.6" y1="107.5" y2="107.5" stroke="#222" stroke-width="1"/>
<line x1="763.4" x2="763.4" y1="104.5" y2="110.5" stroke="#222" stroke-width="1"/>
<line x1="769.6" x2="769.6" y1="104.5" y2="110.5" stroke="#222" stroke-width="1"/>
<circle cx="769.6" cy="107.5" r="3.2" fill="#fff" stroke="#222" stroke-width="1.2"/>
<text x="774.6" y="112" text-anchor="start" fill="#333">1.54</text>
</svg>