<svg xmlns="http://www.w3.org/2000/svg" width="920" height="168" viewBox="0 0 920 168" font-family="Helvetica,Arial,sans-serif" font-size="12">
<rect width="100%" height="100%" fill="#fff"/>
<text x="16" y="24" font-size="15" font-weight="bold" fill="#111">2026-10-02-gate/paired-gate-quiet: ojas-wgpu vs torch-mps</text>
<text x="16" y="44" fill="#555">ojas median / torch median, median of 5 per-round ratios</text>
<text x="16" y="62" fill="#555">Lower is faster. Grey band = within 10%. Hollow bar = run marked noisy. Whisker = per-round min..max.</text>
<rect x="473.7" y="72" width="64.6" height="46" fill="#eee"/>
<line x1="506.0" x2="506.0" y1="72" y2="118" stroke="#222" stroke-width="1.5"/>
<text x="506.0" y="134" text-anchor="middle" fill="#444">1x</text>
<line x1="741.0" x2="741.0" y1="72" y2="118" stroke="#ddd" stroke-width="1"/>
<text x="741.0" y="134" text-anchor="middle" fill="#444">2x</text>
<text x="292" y="92" text-anchor="end" fill="#222">gate_fwd</text>
<rect x="506.0" y="81" width="35.7" height="13" fill="#fff" stroke="#d1495b" stroke-width="1.4"/>
<line x1="502.7" x2="727.7" y1="87.5" y2="87.5" stroke="#222" stroke-width="1"/>
<line x1="502.7" x2="502.7" y1="84.5" y2="90.5" stroke="#222" stroke-width="1"/>
<line x1="727.7" x2="727.7" y1="84.5" y2="90.5" stroke="#222" stroke-width="1"/>
<circle cx="541.8" cy="87.5" r="3.2" fill="#fff" stroke="#222" stroke-width="1.2"/>
<text x="732.7" y="92" text-anchor="start" fill="#333">1.11</text>
<text x="292" y="112" text-anchor="end" fill="#222">gate_bwd</text>
<rect x="506.0" y="101" width="235.0" height="13" fill="#fff" stroke="#d1495b" stroke-width="1.4"/>
<line x1="734.3" x2="784.4" y1="107.5" y2="107.5" stroke="#222" stroke-width="1"/>
<line x1="734.3" x2="734.3" y1="104.5" y2="110.5" stroke="#222" stroke-width="1"/>
<line x1="784.4" x2="784.4" y1="104.5" y2="110.5" stroke="#222" stroke-width="1"/>
<circle cx="741.0" cy="107.5" r="3.2" fill="#fff" stroke="#222" stroke-width="1.2"/>
<text x="789.4" y="112" text-anchor="start" fill="#333">2.00</text>
</svg>